<svg viewBox="0 0 600 400" xmlns="http://www.w3.org/2000/svg">
<g transform="translate(48, 364)">
<g>
<path d="M0,0 L0,0 L1.3032582,-0.00136 L2.6065164,-0.01088 L3.9097745,-0.036719996 L5.2130327,-0.08704 L6.5162907,-0.17 L7.819549,-0.29375997 L9.122807,-0.46648 L10.426065,-0.69632 L11.729323,-0.99144006 L13.032581,-1.36 L14.335839,-1.81016 L15.639098,-2.3500798 L16.942356,-2.9879196 L18.245613,-3.73184 L19.548872,-4.5900006 L20.85213,-5.57056 L22.155388,-6.6816807 L23.458647,-7.9315205 L24.761906,-9.328239 L26.065163,-10.88 L27.368422,-12.594958 L28.671679,-14.48128 L29.974937,-16.547121 L31.278196,-18.800638 L32.581455,-21.25 L33.884712,-23.903357 L35.18797,-26.768883 L36.491226,-29.85472 L37.794487,-33.169037 L39.097744,-36.720005 L40.401,-40.515762 L41.70426,-44.56448 L43.00752,-48.874325 L44.310776,-53.453445 L45.614037,-58.309998 L46.917294,-63.452164 L48.22055,-68.888084 L49.52381,-74.625916 L50.82707,-80.67383 L52.130325,-87.04 L53.433582,-93.73256 L54.736843,-100.75967 L56.0401,-108.129524 L57.343357,-115.85024 L58.646618,-123.929985 L59.949875,-132.37697 L61.25313,-141.19928 L62.556393,-150.4051 L63.85965,-160.00266 L65.16291,-170 L66.46616,-179.99733 L67.769424,-189.59486 L69.072685,-198.80069 L70.37594,-207.62305 L71.6792,-216.07002 L72.98245,-224.14975 L74.28571,-231.87048 L75.588974,-239.24031 L76.89223,-246.26744 L78.19549,-252.96002 L79.49875,-259.32617 L80.802,-265.37408 L82.10526,-271.1119 L83.40852,-276.54785 L84.71178,-281.69 L86.01504,-286.54657 L87.3183,-291.12567 L88.62155,-295.43552 L89.92481,-299.48425 L91.22807,-303.28 L92.53133,-306.83096 L93.83459,-310.1453 L95.13785,-313.2311 L96.4411,-316.09665 L97.74436,-318.75 L99.04762,-321.19937 L100.350876,-323.45288 L101.65414,-325.51874 L102.95739,-327.40503 L104.26065,-329.12 L105.56391,-330.67175 L106.867165,-332.06848 L108.170425,-333.31833 L109.47369,-334.42944 L110.77694,-335.41 L112.0802,-336.26816 L113.38346,-337.0121 L114.686714,-337.64993 L115.989975,-338.18985 L117.293236,-338.63998 L118.59649,-339.00858 L119.89975,-339.30368 L121.20301,-339.53354 L122.50626,-339.70624 L123.809525,-339.83 L125.112785,-339.91296 L126.41604,-339.9633 L127.7193,-339.9891 L129.02255,-339.99866 L130.32582,-340 L131.62907,-340 L132.93233,-340 L134.2356,-340 L135.53885,-340 L136.8421,-340 L138.14537,-340 L139.44862,-340 L140.75188,-340 L142.05515,-340 L143.3584,-340 L144.66165,-340 L145.9649,-340 L147.26817,-340 L148.57143,-340 L149.87468,-340 L151.17795,-340 L152.4812,-340 L153.78445,-340 L155.08772,-340 L156.39098,-340 L157.69423,-340 L158.9975,-340 L160.30075,-340 L161.604,-340 L162.90727,-340 L164.21053,-340 L165.51378,-340 L166.81705,-340 L168.1203,-340 L169.42355,-340 L170.72682,-340 L172.03008,-340 L173.33333,-340 L174.6366,-340 L175.93985,-340 L177.2431,-340 L178.54637,-340 L179.84962,-340 L181.15288,-340 L182.45615,-340 L183.7594,-340 L185.06265,-340 L186.36592,-340 L187.66917,-340 L188.97243,-340 L190.2757,-340 L191.57895,-340 L192.8822,-340 L194.18547,-340 L195.48872,-340 L196.79198,-340 L198.09525,-340 L199.3985,-340 L200.70175,-340 L202.00502,-340 L203.30827,-340 L204.61153,-340 L205.91478,-340 L207.21805,-340 L208.5213,-340 L209.82455,-340 L211.12782,-340 L212.43108,-340 L213.73433,-340 L215.0376,-340 L216.34085,-340 L217.6441,-340 L218.94737,-340 L220.25063,-340 L221.55388,-340 L222.85715,-340 L224.1604,-340 L225.46365,-340 L226.76692,-340 L228.07018,-340 L229.37343,-340 L230.6767,-340 L231.97995,-340 L233.2832,-340 L234.58647,-340 L235.88972,-340 L237.19298,-340 L238.49625,-340 L239.7995,-340 L241.10275,-340 L242.40602,-340 L243.70927,-340 L245.01253,-340 L246.3158,-340 L247.61905,-340 L248.9223,-340 L250.22557,-340 L251.52882,-340 L252.83208,-340 L254.13535,-340 L255.4386,-340 L256.74185,-340 L258.0451,-340 L259.34836,-340 L260.65164,-340 L261.9549,-340 L263.25815,-340 L264.5614,-340 L265.86465,-340 L267.1679,-340 L268.4712,-340 L269.77444,-340 L271.0777,-340 L272.38095,-340 L273.6842,-340 L274.98746,-340 L276.29074,-340 L277.594,-340 L278.89725,-340 L280.2005,-340 L281.50375,-340 L282.807,-340 L284.1103,-340 L285.41354,-340 L286.7168,-340 L288.02005,-340 L289.3233,-340 L290.62656,-340 L291.9298,-340 L293.2331,-340 L294.53635,-340 L295.8396,-340 L297.14285,-340 L298.4461,-340 L299.74936,-340 L301.05264,-340 L302.3559,-340 L303.65915,-340 L304.9624,-340 L306.26566,-340 L307.5689,-340 L308.8722,-340 L310.17545,-340 L311.4787,-340 L312.78195,-340 L314.0852,-340 L315.38846,-340 L316.69174,-340 L317.995,-340 L319.29825,-340 L320.6015,-340 L321.90475,-340 L323.208,-340 L324.5113,-340 L325.81454,-340 L327.1178,-340 L328.42105,-340 L329.7243,-340 L331.02756,-340 L332.33084,-340 L333.6341,-340 L334.93735,-340 L336.2406,-340 L337.54385,-340 L338.8471,-340 L340.1504,-340 L341.45364,-340 L342.7569,-340 L344.06015,-340 L345.3634,-340 L346.66666,-340 L347.9699,-340 L349.2732,-340 L350.57645,-340 L351.8797,-340 L353.18295,-340 L354.4862,-340 L355.78946,-340 L357.09274,-340 L358.396,-340 L359.69925,-340 L361.0025,-340 L362.30576,-340 L363.609,-340 L364.9123,-340 L366.21555,-340 L367.5188,-340 L368.82205,-340 L370.1253,-340 L371.42856,-340 L372.73184,-340 L374.0351,-340 L375.33835,-340 L376.6416,-340 L377.94485,-340 L379.2481,-340 L380.5514,-340 L381.85464,-340 L383.1579,-340 L384.46115,-340 L385.7644,-340 L387.06766,-340 L388.37094,-340 L389.6742,-340 L390.97745,-340 L392.2807,-340 L393.58395,-340 L394.8872,-340 L396.1905,-340 L397.49374,-340 L398.797,-340 L400.10025,-340 L401.4035,-340 L402.70676,-340 L404.01004,-340 L405.3133,-340 L406.61655,-340 L407.9198,-340 L409.22305,-340 L410.5263,-340 L411.82956,-340 L413.13284,-340 L414.4361,-340 L415.73935,-340 L417.0426,-340 L418.34586,-340 L419.6491,-340 L420.9524,-340 L422.25565,-340 L423.5589,-340 L424.86215,-340 L426.1654,-340 L427.46866,-340 L428.77194,-340 L430.0752,-340 L431.37845,-340 L432.6817,-340 L433.98495,-340 L435.2882,-340 L436.5915,-340 L437.89474,-340 L439.198,-340 L440.50125,-340 L441.8045,-340 L443.10776,-340 L444.41104,-340 L445.7143,-340 L447.01755,-340 L448.3208,-340 L449.62405,-340 L450.9273,-340 L452.2306,-340 L453.53384,-340 L454.8371,-340 L456.14035,-340 L457.4436,-340 L458.74686,-340 L460.05014,-340 L461.3534,-340 L462.65665,-340 L463.9599,-340 L465.26315,-340 L466.5664,-340 L467.86966,-340 L469.17294,-340 L470.4762,-340 L471.77945,-340 L473.0827,-340 L474.38596,-340 L475.6892,-340 L476.9925,-340 L478.29575,-340 L479.599,-340 L480.90225,-340 L482.2055,-340 L483.50876,-340 L484.81204,-340 L486.1153,-340 L487.41855,-340 L488.7218,-340 L490.02505,-340 L491.3283,-340 L492.6316,-340 L493.93484,-340 L495.2381,-340 L496.54135,-340 L497.8446,-340 L499.14786,-340 L500.45114,-340 L501.7544,-340 L503.05765,-340 L504.3609,-340 L505.66415,-340 L506.9674,-340 L508.2707,-340 L509.57394,-340 L510.8772,-340 L512.1805,-340 L513.4837,-340 L514.787,-340 L516.0902,-340 L517.3935,-340 L518.6967,-340 L520,-340" fill="none" stroke="red" stroke-width="2"/>
</g>
<g>
<g>
<line stroke="black" stroke-width="1" x1="0" x2="0" y1="0" y2="10"/>
<line stroke="black" stroke-width="1" x1="130.32581453634086" x2="130.32581453634086" y1="0" y2="10"/>
<line stroke="black" stroke-width="1" x1="260.6516290726817" x2="260.6516290726817" y1="0" y2="10"/>
<line stroke="black" stroke-width="1" x1="390.97744360902254" x2="390.97744360902254" y1="0" y2="10"/>
</g>
<line stroke="black" stroke-width="1" x1="0" x2="520" y1="0" y2="0"/>
<g>
<text font-size="12" text-anchor="middle" x="0" y="20">
0
</text>
<text font-size="12" text-anchor="middle" x="130.32581453634086" y="20">
100
</text>
<text font-size="12" text-anchor="middle" x="260.6516290726817" y="20">
200
</text>
<text font-size="12" text-anchor="middle" x="390.97744360902254" y="20">
300
</text>
</g>
<text font-size="12" text-anchor="middle" x="260" y="30">

</text>
</g>
<g>
<g>
<line stroke="black" stroke-width="1" x1="0" x2="-10" y1="0" y2="0"/>
<line stroke="black" stroke-width="1" x1="0" x2="-10" y1="-68" y2="-68"/>
<line stroke="black" stroke-width="1" x1="0" x2="-10" y1="-136" y2="-136"/>
<line stroke="black" stroke-width="1" x1="0" x2="-10" y1="-204.00000000000003" y2="-204.00000000000003"/>
<line stroke="black" stroke-width="1" x1="0" x2="-10" y1="-272" y2="-272"/>
<line stroke="black" stroke-width="1" x1="0" x2="-10" y1="-340" y2="-340"/>
</g>
<line stroke="black" stroke-width="1" x1="0" x2="0" y1="0" y2="-340"/>
<g>
<text dominant-baseline="middle" font-size="12" text-anchor="end" x="-15" y="0">
0
</text>
<text dominant-baseline="middle" font-size="12" text-anchor="end" x="-15" y="-68">
0.2
</text>
<text dominant-baseline="middle" font-size="12" text-anchor="end" x="-15" y="-136">
0.4
</text>
<text dominant-baseline="middle" font-size="12" text-anchor="end" x="-15" y="-204.00000000000003">
0.6000000000000001
</text>
<text dominant-baseline="middle" font-size="12" text-anchor="end" x="-15" y="-272">
0.8
</text>
<text dominant-baseline="middle" font-size="12" text-anchor="end" x="-15" y="-340">
1
</text>
</g>
<text font-size="12" text-anchor="middle" transform="rotate(-90 -30 -170)" x="-30" y="-170">

</text>
</g>
</g>
</svg>