<svg viewBox="0 0 600 400" xmlns="http://www.w3.org/2000/svg">
<g transform="translate(48, 364)">
<g>
<path d="M0,-340 L0,-340 L0.6508135,-340 L1.301627,-340 L1.9524405,-340 L2.603254,-340 L3.2540677,-340 L3.904881,-340 L4.5556946,-340 L5.206508,-340 L5.8573217,-340 L6.5081353,-340 L7.158949,-340 L7.809762,-340 L8.460576,-340 L9.111389,-340 L9.762203,-340 L10.413016,-340 L11.063829,-340 L11.7146435,-340 L12.365457,-340 L13.016271,-340 L13.667084,-340 L14.317898,-340 L14.968711,-340 L15.619524,-340 L16.270338,-340 L16.921152,-340 L17.571964,-340 L18.222778,-340 L18.873592,-340 L19.524406,-340 L20.175219,-340 L20.826033,-340 L21.476847,-340 L22.127659,-340 L22.778473,-340 L23.429287,-340 L24.080101,-340 L24.730913,-340 L25.381727,-340 L26.032541,-340 L26.683353,-340 L27.334167,-340 L27.984982,-340 L28.635796,-340 L29.286608,-340 L29.937422,-340 L30.588236,-340 L31.239048,-340 L31.889862,-340 L32.540676,-340 L33.19149,-340 L33.842304,-340 L34.49312,-340 L35.14393,-340 L35.794743,-340 L36.445557,-340 L37.09637,-340 L37.747185,-340 L38.398,-340 L39.048813,-340 L39.699623,-340 L40.350437,-340 L41.00125,-340 L41.652065,-340 L42.30288,-340 L42.953693,-340 L43.604507,-340 L44.255318,-340 L44.90613,-340 L45.556946,-340 L46.20776,-340 L46.858574,-340 L47.509388,-340 L48.160202,-340 L48.811012,-340 L49.461826,-340 L50.11264,-340 L50.763454,-340 L51.41427,-340 L52.065083,-340 L52.715897,-340 L53.366707,-340 L54.01752,-340 L54.668335,-340 L55.31915,-340 L55.969963,-340 L56.620777,-340 L57.27159,-340 L57.9224,-340 L58.573215,-340 L59.22403,-340 L59.874844,-340 L60.525658,-340 L61.17647,-340 L61.827286,-340 L62.478096,-340 L63.12891,-340 L63.779724,-340 L64.430534,-340 L65.08135,-340 L65.73216,-340 L66.38298,-340 L67.03379,-340 L67.68461,-340 L68.33542,-340 L68.98624,-340 L69.63705,-340 L70.28786,-340 L70.938675,-340 L71.589485,-340 L72.2403,-340 L72.89111,-340 L73.54193,-340 L74.19274,-340 L74.84355,-340 L75.49437,-340 L76.14518,-340 L76.796,-340 L77.44681,-340 L78.097626,-340 L78.748436,-340 L79.39925,-340 L80.050064,-340 L80.700874,-340 L81.35169,-340 L82.0025,-340 L82.65332,-340 L83.30413,-340 L83.95494,-340 L84.60576,-340 L85.25657,-340 L85.90739,-340 L86.5582,-340 L87.209015,-340 L87.859825,-340 L88.510635,-340 L89.16145,-340 L89.81226,-340 L90.46308,-340 L91.11389,-340 L91.76471,-340 L92.41552,-340 L93.06633,-340 L93.71715,-340 L94.36796,-340 L95.018776,-340 L95.669586,-340 L96.320404,-340 L96.971214,-340 L97.622025,-340 L98.27284,-340 L98.92365,-340 L99.57447,-340 L100.22528,-340 L100.8761,-340 L101.52691,-340 L102.17772,-340 L102.82854,-340 L103.47935,-340 L104.130165,-340 L104.780975,-340 L105.43179,-340 L106.0826,-340 L106.73341,-340 L107.38423,-340 L108.03504,-340 L108.68586,-340 L109.33667,-340 L109.98749,-340 L110.6383,-340 L111.28911,-340 L111.939926,-340 L112.59074,-340 L113.241554,-340 L113.892365,-340 L114.54318,-340 L115.19399,-340 L115.8448,-340 L116.49562,-340 L117.14643,-340 L117.79725,-340 L118.44806,-340 L119.09888,-340 L119.74969,-340 L120.4005,-340 L121.051315,-340 L121.702126,-340 L122.35294,-340 L123.00375,-340 L123.65457,-340 L124.30538,-340 L124.95619,-340 L125.60701,-340 L126.25782,-340 L126.90864,-340 L127.55945,-340 L128.21027,-340 L128.86107,-340 L129.51189,-340 L130.1627,-340 L130.81352,-340 L131.46432,-340 L132.11514,-340 L132.76596,-340 L133.41678,-340 L134.06758,-340 L134.7184,-340 L135.36922,-340 L136.02002,-340 L136.67084,-340 L137.32166,-340 L137.97247,-340 L138.62328,-340 L139.2741,-340 L139.92491,-340 L140.57571,-340 L141.22653,-340 L141.87735,-340 L142.52817,-340 L143.17897,-340 L143.82979,-340 L144.4806,-340 L145.13141,-340 L145.78223,-340 L146.43304,-340 L147.08386,-340 L147.73466,-340 L148.38548,-340 L149.0363,-340 L149.6871,-340 L150.33792,-340 L150.98874,-340 L151.63956,-340 L152.29036,-340 L152.94118,-340 L153.592,-340 L154.2428,-340 L154.89362,-340 L155.54443,-340 L156.19525,-340 L156.84605,-340 L157.49687,-340 L158.14769,-340 L158.7985,-340 L159.44931,-340 L160.10013,-340 L160.75095,-340 L161.40175,-340 L162.05257,-340 L162.70338,-340 L163.35419,-340 L164.005,-340 L164.65582,-340 L165.30664,-340 L165.95744,-340 L166.60826,-340 L167.25908,-340 L167.90988,-340 L168.5607,-340 L169.21152,-340 L169.86234,-340 L170.51314,-340 L171.16396,-340 L171.81477,-340 L172.46558,-340 L173.1164,-340 L173.76721,-340 L174.41803,-340 L175.06883,-340 L175.71965,-340 L176.37047,-340 L177.02127,-340 L177.67209,-340 L178.3229,-340 L178.97372,-340 L179.62453,-340 L180.27534,-340 L180.92616,-340 L181.57697,-340 L182.22778,-340 L182.8786,-340 L183.52942,-340 L184.18022,-340 L184.83104,-340 L185.48186,-340 L186.13266,-340 L186.78348,-340 L187.4343,-340 L188.08511,-340 L188.73592,-340 L189.38673,-340 L190.03755,-340 L190.68835,-340 L191.33917,-340 L191.98999,-340 L192.64081,-340 L193.29161,-340 L193.94243,-340 L194.59325,-340 L195.24405,-340 L195.89487,-339.99966 L196.54568,-339.99728 L197.1965,-339.9908 L197.8473,-339.97824 L198.49812,-339.9575 L199.14894,-339.92654 L199.79974,-339.88336 L200.45056,-339.82593 L201.10138,-339.75214 L201.7522,-339.66 L202.403,-339.54745 L203.05382,-339.41248 L203.70464,-339.25302 L204.35544,-339.06705 L205.00626,-338.8525 L205.65707,-338.60736 L206.30789,-338.3296 L206.9587,-338.01712 L207.60951,-337.66794 L208.26033,-337.28 L208.91113,-336.85126 L209.56195,-336.37967 L210.21277,-335.86322 L210.86359,-335.29984 L211.51439,-334.6875 L212.1652,-334.02417 L212.81602,-333.30777 L213.46683,-332.53632 L214.11765,-331.70773 L214.76846,-330.82 L215.41928,-329.87106 L216.07008,-328.8589 L216.7209,-327.7814 L217.37172,-326.63663 L218.02252,-325.42252 L218.67334,-324.13696 L219.32416,-322.77798 L219.97498,-321.34354 L220.62578,-319.83154 L221.2766,-318.24 L221.92741,-316.56686 L222.57822,-314.81006 L223.22903,-312.96762 L223.87985,-311.03745 L224.53067,-309.0175 L225.18147,-306.90576 L225.83229,-304.70016 L226.48311,-302.3987 L227.13391,-299.99933 L227.78473,-297.5 L228.43555,-294.89868 L229.08636,-292.1933 L229.73717,-289.38184 L230.38799,-286.46225 L231.0388,-283.4325 L231.6896,-280.29056 L232.34042,-277.0344 L232.99124,-273.6619 L233.64206,-270.17114 L234.29286,-266.56 L234.94368,-262.82645 L235.5945,-258.96848 L236.2453,-254.98402 L236.89612,-250.87105 L237.54694,-246.62752 L238.19775,-242.25137 L238.84856,-237.7406 L239.49937,-233.09311 L240.15019,-228.30695 L240.801,-223.38 L241.45181,-218.31024 L242.10263,-213.09569 L242.75345,-207.7342 L243.40425,-202.22383 L244.05507,-196.5625 L244.70589,-190.74817 L245.35669,-184.7788 L246.0075,-178.65234 L246.65833,-172.36673 L247.30914,-165.92 L247.95995,-159.31007 L248.61076,-152.53488 L249.26158,-145.59242 L249.91238,-138.4806 L250.5632,-131.1975 L251.21402,-123.74096 L251.86484,-116.10898 L252.51564,-108.29952 L253.16646,-100.31056 L253.81728,-92.14003 L254.46808,-83.78589 L255.1189,-75.24608 L255.76971,-66.51862 L256.42053,-57.601444 L257.07135,-48.49251 L257.72214,-39.18978 L258.37296,-29.69116 L259.02377,-19.99469 L259.6746,-10.098318 L260.3254,0 L260.97623,0 L261.62704,0 L262.27786,0 L262.92865,0 L263.57947,0 L264.2303,0 L264.8811,0 L265.53192,0 L266.18274,0 L266.83356,0 L267.48434,0 L268.13516,0 L268.78598,0 L269.4368,0 L270.08762,0 L270.73843,0 L271.38925,0 L272.04004,0 L272.69086,0 L273.34167,0 L273.9925,0 L274.6433,0 L275.29413,0 L275.94495,0 L276.59573,0 L277.24655,0 L277.89737,0 L278.5482,0 L279.199,0 L279.84982,0 L280.50064,0 L281.15143,0 L281.80225,0 L282.45306,0 L283.10388,0 L283.7547,0 L284.40552,0 L285.05634,0 L285.70712,0 L286.35794,0 L287.00876,0 L287.65958,0 L288.3104,0 L288.9612,0 L289.61203,0 L290.26282,0 L290.91364,0 L291.56445,0 L292.21527,0 L292.8661,0 L293.5169,0 L294.16772,0 L294.8185,0 L295.46933,0 L296.12015,0 L296.77097,0 L297.42178,0 L298.0726,0 L298.72342,0 L299.3742,0 L300.02502,0 L300.67584,0 L301.32666,0 L301.97748,0 L302.6283,0 L303.2791,0 L303.9299,0 L304.58072,0 L305.23154,0 L305.88235,0 L306.53317,0 L307.184,0 L307.8348,0 L308.4856,0 L309.1364,0 L309.78723,0 L310.43805,0 L311.08887,0 L311.7397,0 L312.3905,0 L313.0413,0 L313.6921,0 L314.34293,0 L314.99374,0 L315.64456,0 L316.29538,0 L316.9462,0 L317.597,0 L318.2478,0 L318.89862,0 L319.54944,0 L320.20026,0 L320.85107,0 L321.5019,0 L322.15268,0 L322.8035,0 L323.4543,0 L324.10513,0 L324.75595,0 L325.40677,0 L326.0576,0 L326.70837,0 L327.3592,0 L328.01,0 L328.66083,0 L329.31165,0 L329.96246,0 L330.61328,0 L331.26407,0 L331.9149,0 L332.5657,0 L333.21652,0 L333.86734,0 L334.51816,0 L335.16898,0 L335.81976,0 L336.47058,0 L337.1214,0 L337.77222,0 L338.42303,0 L339.07385,0 L339.72467,0 L340.37546,0 L341.02628,0 L341.6771,0 L342.3279,0 L342.97873,0 L343.62955,0 L344.28036,0 L344.93115,0 L345.58197,0 L346.2328,0 L346.8836,0 L347.53442,0 L348.18524,0 L348.83606,0 L349.48685,0 L350.13766,0 L350.78848,0 L351.4393,0 L352.09012,0 L352.74094,0 L353.39175,0 L354.04254,0 L354.69336,0 L355.34418,0 L355.995,0 L356.6458,0 L357.29663,0 L357.94745,0 L358.59824,0 L359.24905,0 L359.89987,0 L360.5507,0 L361.2015,0 L361.85233,0 L362.50314,0 L363.15393,0 L363.80475,0 L364.45557,0 L365.10638,0 L365.7572,0 L366.40802,0 L367.05884,0 L367.70963,0 L368.36044,0 L369.01126,0 L369.66208,0 L370.3129,0 L370.9637,0 L371.61453,0 L372.26532,0 L372.91614,0 L373.56696,0 L374.21777,0 L374.8686,0 L375.5194,0 L376.17023,0 L376.821,0 L377.47183,0 L378.12265,0 L378.77347,0 L379.4243,0 L380.0751,0 L380.72592,0 L381.3767,0 L382.02753,0 L382.67834,0 L383.32916,0 L383.97998,0 L384.6308,0 L385.28162,0 L385.9324,0 L386.58322,0 L387.23404,0 L387.88486,0 L388.53568,0 L389.1865,0 L389.8373,0 L390.4881,0 L391.13892,0 L391.78973,0 L392.44055,0 L393.09137,0 L393.7422,0 L394.393,0 L395.0438,0 L395.6946,0 L396.34543,0 L396.99625,0 L397.64706,0 L398.29788,0 L398.9487,0 L399.5995,0 L400.2503,0 L400.90112,0 L401.55194,0 L402.20276,0 L402.85358,0 L403.5044,0 L404.15518,0 L404.806,0 L405.45682,0 L406.10764,0 L406.75845,0 L407.40927,0 L408.0601,0 L408.71088,0 L409.3617,0 L410.0125,0 L410.66333,0 L411.31415,0 L411.96497,0 L412.61578,0 L413.26657,0 L413.9174,0 L414.5682,0 L415.21902,0 L415.86984,0 L416.52066,0 L417.17148,0 L417.82227,0 L418.47308,0 L419.1239,0 L419.77472,0 L420.42554,0 L421.07635,0 L421.72717,0 L422.37796,0 L423.02878,0 L423.6796,0 L424.3304,0 L424.98123,0 L425.63205,0 L426.28287,0 L426.93365,0 L427.58447,0 L428.2353,0 L428.8861,0 L429.53693,0 L430.18774,0 L430.83856,0 L431.48935,0 L432.14017,0 L432.791,0 L433.4418,0 L434.09262,0 L434.74344,0 L435.39426,0 L436.04504,0 L436.69586,0 L437.34668,0 L437.9975,0 L438.64832,0 L439.29913,0 L439.94995,0 L440.60074,0 L441.25156,0 L441.90237,0 L442.5532,0 L443.204,0 L443.85483,0 L444.50565,0 L445.15643,0 L445.80725,0 L446.45807,0 L447.1089,0 L447.7597,0 L448.41052,0 L449.06134,0 L449.71213,0 L450.36295,0 L451.01376,0 L451.66458,0 L452.3154,0 L452.96622,0 L453.61703,0 L454.26782,0 L454.91864,0 L455.56946,0 L456.22028,0 L456.8711,0 L457.5219,0 L458.17273,0 L458.82352,0 L459.47433,0 L460.12515,0 L460.77597,0 L461.4268,0 L462.0776,0 L462.72842,0 L463.3792,0 L464.03003,0 L464.68085,0 L465.33167,0 L465.98248,0 L466.6333,0 L467.28412,0 L467.9349,0 L468.58572,0 L469.23654,0 L469.88736,0 L470.53818,0 L471.189,0 L471.8398,0 L472.4906,0 L473.14142,0 L473.79224,0 L474.44305,0 L475.09387,0 L475.7447,0 L476.3955,0 L477.0463,0 L477.6971,0 L478.34793,0 L478.99875,0 L479.64957,0 L480.30038,0 L480.9512,0 L481.602,0 L482.2528,0 L482.90363,0 L483.55444,0 L484.20526,0 L484.85608,0 L485.5069,0 L486.15768,0 L486.8085,0 L487.45932,0 L488.11014,0 L488.76096,0 L489.41177,0 L490.0626,0 L490.71338,0 L491.3642,0 L492.015,0 L492.66583,0 L493.31665,0 L493.96747,0 L494.6183,0 L495.26907,0 L495.9199,0 L496.5707,0 L497.22153,0 L497.87234,0 L498.52316,0 L499.17398,0 L499.82477,0 L500.4756,0 L501.1264,0 L501.77722,0 L502.42804,0 L503.07886,0 L503.72968,0 L504.38046,0 L505.03128,0 L505.6821,0 L506.33292,0 L506.98373,0 L507.63455,0 L508.28537,0 L508.93616,0 L509.58698,0 L510.2378,0 L510.8886,0 L511.53943,0 L512.19025,0 L512.84106,0 L513.4919,0 L514.1427,0 L514.7935,0 L515.4443,0 L516.0951,0 L516.7459,0 L517.3967,0 L518.04755,0 L518.69836,0 L519.3492,0 L520,0" fill="none" stroke="red" stroke-width="2"/>
</g>
<g>
<g>
<line stroke="black" stroke-width="1" x1="0" x2="0" y1="0" y2="10"/>
<line stroke="black" stroke-width="1" x1="130.16270337922404" x2="130.16270337922404" y1="0" y2="10"/>
<line stroke="black" stroke-width="1" x1="260.3254067584481" x2="260.3254067584481" y1="0" y2="10"/>
<line stroke="black" stroke-width="1" x1="390.4881101376721" x2="390.4881101376721" y1="0" y2="10"/>
</g>
<line stroke="black" stroke-width="1" x1="0" x2="520" y1="0" y2="0"/>
<g>
<text font-size="12" text-anchor="middle" x="0" y="20">
0
</text>
<text font-size="12" text-anchor="middle" x="130.16270337922404" y="20">
200
</text>
<text font-size="12" text-anchor="middle" x="260.3254067584481" y="20">
400
</text>
<text font-size="12" text-anchor="middle" x="390.4881101376721" y="20">
600
</text>
</g>
<text font-size="12" text-anchor="middle" x="260" y="30">

</text>
</g>
<g>
<g>
<line stroke="black" stroke-width="1" x1="0" x2="-10" y1="0" y2="0"/>
<line stroke="black" stroke-width="1" x1="0" x2="-10" y1="-68" y2="-68"/>
<line stroke="black" stroke-width="1" x1="0" x2="-10" y1="-136" y2="-136"/>
<line stroke="black" stroke-width="1" x1="0" x2="-10" y1="-204.00000000000003" y2="-204.00000000000003"/>
<line stroke="black" stroke-width="1" x1="0" x2="-10" y1="-272" y2="-272"/>
<line stroke="black" stroke-width="1" x1="0" x2="-10" y1="-340" y2="-340"/>
</g>
<line stroke="black" stroke-width="1" x1="0" x2="0" y1="0" y2="-340"/>
<g>
<text dominant-baseline="middle" font-size="12" text-anchor="end" x="-15" y="0">
0
</text>
<text dominant-baseline="middle" font-size="12" text-anchor="end" x="-15" y="-68">
0.2
</text>
<text dominant-baseline="middle" font-size="12" text-anchor="end" x="-15" y="-136">
0.4
</text>
<text dominant-baseline="middle" font-size="12" text-anchor="end" x="-15" y="-204.00000000000003">
0.6000000000000001
</text>
<text dominant-baseline="middle" font-size="12" text-anchor="end" x="-15" y="-272">
0.8
</text>
<text dominant-baseline="middle" font-size="12" text-anchor="end" x="-15" y="-340">
1
</text>
</g>
<text font-size="12" text-anchor="middle" transform="rotate(-90 -30 -170)" x="-30" y="-170">

</text>
</g>
</g>
</svg>